#!OML:ASF X:\für Bonn\!DataBase\2005_08_11_Bastian_Final\c3d\Bastian.ASF
:FULLY-SPECIFIED
:DEGREES
65
root 3.22993 19.1611 14.2833 1084.45 -7.32171 -3.83735
lowerback 9.70954 0.381736 0.414342
upperback 5.0506 0.518481 -0.592411
thorax -0.194497 0.267258 -0.894056
lowerneck -12.1833 -3.90411 -7.22464
upperneck -2.9527 -4.39201 9.71956
head 1.47432 -1.92701 3.89665
rclavicle -1.74931e-014 3.18055e-015
rhumerus -56.7007 6.51457 -93.338
rradius 58.58
rwrist -2.1523
rhand -21.217 22.6464
rfingers 7.12502
rthumb 5.16479 -7.2707
lclavicle -1.74931e-014 3.18055e-015
lhumerus -37.9856 -4.17125 81.3914
lradius 66.2175
lwrist -162.854
lhand -26.345 11.8196
lfingers 7.12502
lthumb 0.212553 41.7992
rfemur -28.6488 -7.63786 28.459
rtibia 42.1277
rfoot 1.71966 5.10382
rtoes -33.4426
lfemur -23.989 1.63868 -15.1855
ltibia 34.5849
lfoot 12.3413 -2.83765
ltoes -25.3282
66
root 3.22961 18.8786 14.4892 1084.68 -7.21877 -3.89302
lowerback 9.84225 0.311367 0.54716
upperback 5.09072 0.437677 -0.511483
thorax -0.226401 0.228219 -0.878231
lowerneck -12.2278 -3.86709 -7.20918
upperneck -3.60948 -4.30274 9.72835
head 1.27867 -1.88903 3.90764
rclavicle -1.51076e-014 -6.36111e-015
rhumerus -56.8524 6.53089 -93.2933
rradius 58.8737
rwrist -2.03785
rhand -21.3409 22.8278
rfingers 7.12502
rthumb 5.04521 -7.09216
lclavicle -1.51076e-014 -6.36111e-015
lhumerus -37.747 -3.82745 81.4855
lradius 66.116
lwrist -163.004
lhand -26.4996 11.6388
lfingers 7.12502
lthumb 0.0632482 41.6185
rfemur -29.6316 -8.1716 28.7193
rtibia 42.9639
rfoot 1.28537 5.31708
rtoes -31.1263
lfemur -24.7923 1.91236 -15.2645
ltibia 35.5975
lfoot 11.2319 -3.31312
ltoes -23.395
67
root 3.23022 18.5809 14.6927 1084.75 -7.11451 -3.91907
lowerback 10.1297 0.253188 0.686437
upperback 5.14682 0.37431 -0.451708
thorax -0.325529 0.197927 -0.8903
lowerneck -12.2346 -3.82996 -7.11813
upperneck -4.28012 -4.22421 9.66665
head 1.07026 -1.85969 3.88485
rclavicle -4.37326e-015 3.97569e-015
rhumerus -56.984 6.47178 -93.2415
rradius 59.1481
rwrist -1.76151
rhand -21.5166 22.9276
rfingers 7.12502
rthumb 4.87551 -6.9963
lclavicle -4.37326e-015 3.97569e-015
lhumerus -37.504 -3.56889 81.6244
lradius 66.0011
lwrist -163.141
lhand -26.5345 11.5077
lfingers 7.12502
lthumb 0.0294686 41.4875
rfemur -30.474 -8.64095 28.9012
rtibia 44.2023
rfoot 0.568337 5.48884
rtoes -27.3033
lfemur -25.4237 2.24011 -15.3967
ltibia 37.0111
lfoot 9.06344 -3.96939
ltoes -22.1745
68
root 3.23217 18.2731 14.896 1084.76 -7.04073 -3.9199
lowerback 10.469 0.187048 0.792231
upperback 5.22062 0.298811 -0.374569
thorax -0.435054 0.160675 -0.864061
lowerneck -12.0504 -3.78611 -7.11341
upperneck -5.1637 -4.14376 9.2911
head 0.84613 -1.84167 4.17085
rclavicle -1.98785e-015 2.54444e-014
rhumerus -57.1264 6.48645 -93.14
rradius 59.4518
rwrist -1.44846
rhand -21.7485 23.1152
rfingers 7.12502
rthumb 4.65161 -6.81374
lclavicle -1.98785e-015 2.54444e-014
lhumerus -37.2066 -3.19095 81.7813
lradius 65.9312
lwrist -163.348
lhand -26.5951 11.3437
lfingers 7.12502
lthumb -0.0289775 41.3234
rfemur -31.1809 -8.8858 28.9623
rtibia 45.8316
rfoot -0.574848 5.55114
rtoes -21.8846
lfemur -26.0053 2.66459 -15.5954
ltibia 38.9103
lfoot 5.94244 -4.84581
ltoes -21.6818
69
root 3.23394 17.9503 15.0993 1084.62 -6.9705 -3.9228
lowerback 10.9786 0.126042 0.909926
upperback 5.30809 0.233036 -0.320911
thorax -0.622094 0.128273 -0.869905
lowerneck -12.0124 -3.74157 -6.89951
upperneck -5.92898 -4.07175 9.10943
head 0.566692 -1.81849 4.06995
rclavicle 1.03368e-014 -1.43125e-014
rhumerus -57.393 6.47575 -93.0732
rradius 59.8282
rwrist -1.00237
rhand -22.166 23.3619
rfingers 7.12502
rthumb 4.2485 -6.57546
lclavicle 1.03368e-014 -1.43125e-014
lhumerus -36.8749 -2.98769 81.953
lradius 65.8587
lwrist -163.581
lhand -26.5237 11.1944
lfingers 7.12502
lthumb 0.0399123 41.1741
rfemur -31.6529 -8.95124 28.9332
rtibia 47.8269
rfoot -2.3695 5.60483
rtoes -15.4752
lfemur -26.5016 3.05977 -15.7808
ltibia 41.3243
lfoot 2.08274 -5.79852
ltoes -20.7537
70
root 3.23348 17.6224 15.305 1084.41 -6.91712 -3.9568
lowerback 11.5657 0.0641685 1.05087
upperback 5.38432 0.170922 -0.262863
thorax -0.861935 0.0975211 -0.884129
lowerneck -12.2965 -3.70273 -6.61395
upperneck -6.46839 -4.01333 8.86845
head 0.4165 -1.79567 3.93049
rclavicle 1.2921e-014 -2.06736e-014
rhumerus -57.6248 6.44342 -92.9925
rradius 60.185
rwrist -0.48756
rhand -22.5902 23.5835
rfingers 7.12502
rthumb 3.83889 -6.36163
lclavicle 1.2921e-014 -2.06736e-014
lhumerus -36.3612 -2.77743 82.1406
lradius 65.8012
lwrist -163.902
lhand -26.4476 10.8882
lfingers 7.12502
lthumb 0.113459 40.8679
rfemur -32.0269 -8.96193 28.9255
rtibia 50.115
rfoot -4.85661 5.82261
rtoes -9.11694
lfemur -26.9817 3.43747 -15.9039
ltibia 44.1891
lfoot -2.50346 -6.67427
ltoes -17.755
71
root 3.23088 17.3004 15.5123 1084.17 -6.85769 -3.9629
lowerback 12.159 -0.00804275 1.11703
upperback 5.46282 0.0895399 -0.193172
thorax -1.10271 0.0557369 -0.840697
lowerneck -12.935 -3.67319 -6.26401
upperneck -6.81247 -3.97207 8.54159
head 0.388979 -1.77544 3.74383
rclavicle -4.57205e-015 -3.97569e-016
rhumerus -57.5698 6.44753 -92.8653
rradius 60.3215
rwrist 0.19987
rhand -23.1269 23.8587
rfingers 7.12502
rthumb 3.32056 -6.09519
lclavicle -4.57205e-015 -3.97569e-016
lhumerus -35.7036 -2.55636 82.3456
lradius 65.846
lwrist -164.22
lhand -26.3906 10.3486
lfingers 7.12502
lthumb 0.168445 40.3283
rfemur -32.3632 -9.15285 28.9939
rtibia 52.6247
rfoot -7.84445 6.16653
rtoes -3.69728
lfemur -27.5703 3.78172 -16.0217
ltibia 47.4246
lfoot -7.33109 -7.62772
ltoes -14.089
72
root 3.22584 16.9981 15.7238 1083.86 -6.82957 -3.97133
lowerback 12.8087 -0.0870633 1.16953
upperback 5.5281 -0.000611775 -0.135311
thorax -1.38681 0.00914374 -0.799314
lowerneck -13.5178 -3.6096 -5.95186
upperneck -7.14849 -3.88804 8.25306
head 0.353055 -1.73471 3.58262
rclavicle -4.96962e-015 3.97569e-015
rhumerus -57.2857 6.47845 -92.7704
rradius 60.2343
rwrist 0.924237
rhand -23.7047 24.1476
rfingers 7.12502
rthumb 2.76258 -5.8143
lclavicle -4.96962e-015 3.97569e-015
lhumerus -35.3097 -2.40657 82.5385
lradius 66.0237
lwrist -164.676
lhand -26.2661 9.90155
lfingers 7.12502
lthumb 0.288761 39.8811
rfemur -32.5565 -9.38849 29.037
rtibia 55.2717
rfoot -11.1171 6.56776
rtoes 1.06343
lfemur -28.1629 4.12673 -16.0957
ltibia 50.9282
lfoot -12.1965 -8.6254
ltoes -11.193
73
root 3.22174 16.7018 15.9385 1083.5 -6.76691 -3.94744
lowerback 13.5241 -0.196364 1.23158
upperback 5.56778 -0.127923 -0.111478
thorax -1.73257 -0.0558842 -0.791552
lowerneck -14.1483 -3.54813 -5.62403
upperneck -7.38126 -3.81623 7.97897
head 0.360133 -1.69947 3.42322
rclavicle 3.00165e-014 -9.93923e-015
rhumerus -56.7759 6.48121 -92.7024
rradius 59.9573
rwrist 1.69995
rhand -24.2388 24.4087
rfingers 7.12502
rthumb 2.24673 -5.55922
lclavicle 3.00165e-014 -9.93923e-015
lhumerus -34.9009 -2.37575 82.7356
lradius 65.9775
lwrist -165.275
lhand -25.9711 9.71258
lfingers 7.12502
lthumb 0.573692 39.6916
rfemur -32.6537 -9.64462 29.022
rtibia 58.0149
rfoot -14.8754 6.8958
rtoes 4.2488
lfemur -28.7217 4.3689 -16.1699
ltibia 54.5567
lfoot -16.7802 -9.64891
ltoes -9.14025
74
root 3.21844 16.4096 16.1585 1083.18 -6.73934 -3.95501
lowerback 14.1951 -0.334771 1.32883
upperback 5.57205 -0.287671 -0.0848197
thorax -2.09135 -0.136902 -0.793137
lowerneck -14.8379 -3.44858 -5.35478
upperneck -7.50696 -3.69184 7.73266
head 0.411036 -1.63508 3.28838
rclavicle 1.94809e-014 -2.34566e-014
rhumerus -56.1508 6.59197 -92.7004
rradius 59.5972
rwrist 2.36825
rhand -24.7146 24.5541
rfingers 7.12502
rthumb 1.7872 -5.41812
lclavicle 1.94809e-014 -2.34566e-014
lhumerus -34.6225 -2.30467 82.9003
lradius 66.0352
lwrist -165.775
lhand -25.6617 9.49613
lfingers 7.12502
lthumb 0.872502 39.4741
rfemur -32.7186 -9.84755 29.0176
rtibia 60.7543
rfoot -18.7263 7.12222
rtoes 6.52792
lfemur -29.2167 4.59699 -16.1841
ltibia 58.1677
lfoot -20.7017 -10.6189
ltoes -6.23402
75
root 3.21479 16.1363 16.3821 1082.84 -6.68658 -3.93203
lowerback 14.8671 -0.491823 1.43684
upperback 5.53848 -0.468576 -0.0781474
thorax -2.4904 -0.228566 -0.814957
lowerneck -15.5485 -3.34433 -5.0679
upperneck -7.47052 -3.57443 7.46563
head 0.518781 -1.57387 3.14339
rclavicle 2.24627e-014 -1.07344e-014
rhumerus -55.5836 6.67974 -92.6923
rradius 59.3189
rwrist 2.93684
rhand -25.0063 24.6398
rfingers 7.12502
rthumb 1.5055 -5.33466
lclavicle 2.24627e-014 -1.07344e-014
lhumerus -34.4292 -2.29587 83.0584
lradius 66.1381
lwrist -166.251
lhand -25.432 9.40067
lfingers 7.12502
lthumb 1.09433 39.3776
rfemur -32.659 -10.1189 28.9154
rtibia 63.3763
rfoot -22.4585 7.38944
rtoes 8.33065
lfemur -29.5492 4.70417 -16.1747
ltibia 61.5568
lfoot -23.8622 -11.6125
ltoes -2.49833
76
root 3.21064 15.9038 16.6121 1082.53 -6.63427 -3.96988
lowerback 15.4252 -0.649348 1.70124
upperback 5.48655 -0.628024 -0.0996851
thorax -2.84885 -0.308274 -0.955812
lowerneck -16.1621 -3.25259 -4.81309
upperneck -7.40671 -3.4761 7.25995
head 0.623552 -1.52261 3.02671
rclavicle -9.93923e-016 1.19271e-015
rhumerus -54.9798 6.69896 -92.7301
rradius 59.0971
rwrist 3.25808
rhand -25.1103 24.6345
rfingers 7.12502
rthumb 1.40507 -5.34065
lclavicle -9.93923e-016 1.19271e-015
lhumerus -34.2914 -2.50638 83.2145
lradius 66.3194
lwrist -166.577
lhand -25.1036 9.42626
lfingers 7.12502
lthumb 1.41156 39.4013
rfemur -32.4202 -10.3486 28.8031
rtibia 65.6973
rfoot -25.5761 7.64311
rtoes 9.57231
lfemur -29.7404 4.75668 -16.0589
ltibia 64.5889
lfoot -26.4018 -12.6007
ltoes -0.01961
77
root 3.20493 15.7133 16.8486 1082.28 -6.59384 -3.9451
lowerback 15.8601 -0.78474 1.97751
upperback 5.3852 -0.757272 -0.173426
thorax -3.19466 -0.373595 -1.16222
lowerneck -16.7525 -3.18288 -4.57555
upperneck -7.17827 -3.41418 7.0852
head 0.783547 -1.48768 2.9228
rclavicle -2.04748e-014 9.14409e-015
rhumerus -54.3308 6.58135 -92.774
rradius 58.9245
rwrist 3.42743
rhand -24.9918 24.4676
rfingers 7.12502
rthumb 1.51945 -5.50677
lclavicle -2.04748e-014 9.14409e-015
lhumerus -34.1456 -2.87401 83.3333
lradius 66.644
lwrist -166.796
lhand -24.9729 9.52107
lfingers 7.12502
lthumb 1.53774 39.4953
rfemur -32.0341 -10.5767 28.5607
rtibia 67.6486
rfoot -27.8501 7.92093
rtoes 10.3794
lfemur -29.692 4.7165 -15.9845
ltibia 67.1541
lfoot -28.4755 -13.4942
ltoes 1.60896
78
root 3.19678 15.5645 17.093 1082.09 -6.52658 -3.94997
lowerback 15.8696 -0.927254 2.29712
upperback 5.3169 -0.896986 -0.234083
thorax -3.2814 -0.442179 -1.38061
lowerneck -17.1625 -3.11407 -4.40102
upperneck -6.96747 -3.34955 6.91289
head 0.909445 -1.45352 2.83352
rclavicle -2.48481e-014 -1.39149e-014
rhumerus -53.979 6.59824 -92.8772
rradius 59.0843
rwrist 3.32833
rhand -24.8162 24.2385
rfingers 7.12502
rthumb 1.68905 -5.73461
lclavicle -2.48481e-014 -1.39149e-014
lhumerus -33.9164 -3.34501 83.4768
lradius 67.1055
lwrist -166.745
lhand -24.9539 9.63297
lfingers 7.12502
lthumb 1.55608 39.607
rfemur -31.5108 -10.7907 28.3277
rtibia 69.1724
rfoot -29.5592 8.06002
rtoes 10.3237
lfemur -29.4065 4.59402 -15.8565
ltibia 69.1948
lfoot -30.0362 -14.3323
ltoes 2.9844
